<svg xmlns="http://www.w3.org/2000/svg" viewBox="0 0 760.75 822.71"><defs><style>.cls-1{fill:#fff;stroke:#000222;stroke-width:2px;}.cls-1,.cls-3,.cls-4{stroke-miterlimit:10;}.cls-2{font-size:28px;fill:#000222;font-family:MyriadPro-Regular, Myriad Pro;}.cls-3,.cls-4{stroke:#000;}.cls-3{stroke-width:19px;}.cls-4{fill:none;stroke-width:5px;}</style></defs><g id="bolita"><circle class="cls-1" cx="155.37" cy="633" r="26.5"/><text class="cls-2" transform="translate(148.26 641.32)">1</text><circle class="cls-1" cx="224.37" cy="574" r="26.5"/><text class="cls-2" transform="translate(210.08 582.32)">21</text><circle class="cls-1" cx="169.37" cy="591" r="26.5"/><text class="cls-2" transform="translate(155.08 599.32)">14</text><circle class="cls-1" cx="330.37" cy="663" r="26.5"/><text class="cls-2" transform="translate(316.08 671.32)">37</text><circle class="cls-1" cx="125.37" cy="600" r="26.5"/><text class="cls-2" transform="translate(111.08 608.32)">94</text><circle class="cls-1" cx="211.37" cy="621" r="26.5"/><text class="cls-2" transform="translate(197.08 629.32)">82</text><circle class="cls-1" cx="279.37" cy="585" r="26.5"/><text class="cls-2" transform="translate(272.26 593.32)">3</text><circle class="cls-1" cx="422.37" cy="651" r="26.5"/><text class="cls-2" transform="translate(408.08 659.32)">54</text><circle class="cls-1" cx="369.37" cy="674" r="26.5"/><text class="cls-2" transform="translate(355.08 682.32)">44</text><circle class="cls-1" cx="386.37" cy="615" r="26.5"/><text class="cls-2" transform="translate(372.08 623.32)">34</text><circle class="cls-1" cx="330.37" cy="615" r="26.5"/><text class="cls-2" transform="translate(316.08 623.32)">84</text><circle class="cls-1" cx="316.37" cy="705" r="26.5"/><text class="cls-2" transform="translate(302.08 713.32)">81</text><circle class="cls-1" cx="215.37" cy="679" r="26.5"/><text class="cls-2" transform="translate(208.26 687.32)">9</text><circle class="cls-1" cx="290.37" cy="642" r="26.5"/><text class="cls-2" transform="translate(276.08 650.32)">20</text><circle class="cls-1" cx="185.37" cy="664" r="26.5"/><text class="cls-2" transform="translate(171.08 672.32)">47</text><circle class="cls-1" cx="241.37" cy="649" r="26.5"/><text class="cls-2" transform="translate(227.08 657.32)">71</text><circle class="cls-1" cx="250.37" cy="614" r="26.5"/><text class="cls-2" transform="translate(236.08 622.32)">40</text><circle class="cls-1" cx="242.37" cy="694" r="26.5"/><text class="cls-2" transform="translate(228.08 702.32)">80</text><circle class="cls-1" cx="278.37" cy="706" r="26.5"/><text class="cls-2" transform="translate(271.26 714.32)">4</text><circle class="cls-1" cx="440.37" cy="683" r="26.5"/><text class="cls-2" transform="translate(426.08 691.32)">11</text><circle class="cls-1" cx="356.37" cy="719" r="26.5"/><text class="cls-2" transform="translate(342.08 727.32)">49</text><circle class="cls-1" cx="403.37" cy="690" r="26.5"/><text class="cls-2" transform="translate(389.08 698.32)">39</text><circle class="cls-1" cx="277.37" cy="682" r="26.5"/><text class="cls-2" transform="translate(263.08 690.32)">73</text><circle class="cls-1" cx="405.37" cy="719" r="26.5"/><text class="cls-2" transform="translate(391.08 727.32)">88</text><circle class="cls-1" cx="448.37" cy="713" r="26.5"/><text class="cls-2" transform="translate(441.26 721.32)">8</text><circle class="cls-1" cx="506.37" cy="630" r="26.5"/><text class="cls-2" transform="translate(492.08 638.32)">27</text><circle class="cls-1" cx="517.37" cy="693" r="26.5"/><text class="cls-2" transform="translate(503.08 701.32)">12</text><circle class="cls-1" cx="534.37" cy="625" r="26.5"/><text class="cls-2" transform="translate(520.08 633.32)">30</text><circle class="cls-1" cx="202.37" cy="528" r="26.5"/><text class="cls-2" transform="translate(188.08 536.32)">95</text><circle class="cls-1" cx="94.37" cy="564" r="26.5"/><text class="cls-2" transform="translate(80.08 572.32)">92</text><circle class="cls-1" cx="434.37" cy="607" r="26.5"/><text class="cls-2" transform="translate(427.26 615.32)">2</text><circle class="cls-1" cx="121.37" cy="554" r="26.5"/><text class="cls-2" transform="translate(107.08 562.32)">58</text><circle class="cls-1" cx="572.37" cy="545" r="26.5"/><text class="cls-2" transform="translate(558.08 553.32)">64</text><circle class="cls-1" cx="511.37" cy="571" r="26.5"/><text class="cls-2" transform="translate(497.08 579.32)">31</text><circle class="cls-1" cx="644.37" cy="545" r="26.5"/><text class="cls-2" transform="translate(630.08 553.32)">99</text><circle class="cls-1" cx="612.37" cy="570" r="26.5"/><text class="cls-2" transform="translate(598.08 578.32)">57</text><circle class="cls-1" cx="470.37" cy="649" r="26.5"/><text class="cls-2" transform="translate(463.26 657.32)">6</text><circle class="cls-1" cx="550.37" cy="679" r="26.5"/><text class="cls-2" transform="translate(536.08 687.32)">25</text><circle class="cls-1" cx="620.37" cy="621" r="26.5"/><text class="cls-2" transform="translate(606.08 629.32)">41</text><circle class="cls-1" cx="170.37" cy="544" r="26.5"/><text class="cls-2" transform="translate(156.08 552.32)">70</text><circle class="cls-1" cx="555.37" cy="580" r="26.5"/><text class="cls-2" transform="translate(541.08 588.32)">60</text><circle class="cls-1" cx="680.37" cy="547" r="26.5"/><text class="cls-2" transform="translate(666.08 555.32)">90</text><circle class="cls-1" cx="490.37" cy="688" r="26.5"/><text class="cls-2" transform="translate(483.26 696.32)">0</text><circle class="cls-1" cx="470.37" cy="597" r="26.5"/><text class="cls-2" transform="translate(456.08 605.32)">19</text><circle class="cls-1" cx="581.37" cy="603" r="26.5"/><text class="cls-2" transform="translate(567.08 611.32)">69</text><circle class="cls-1" cx="586.37" cy="652" r="26.5"/><text class="cls-2" transform="translate(572.08 660.32)">38</text><circle class="cls-1" cx="651.37" cy="588" r="26.5"/><text class="cls-2" transform="translate(637.08 596.32)">75</text><circle class="cls-1" cx="607.37" cy="522" r="26.5"/><text class="cls-2" transform="translate(593.08 530.32)">78</text></g><g id="Capa_1" data-name="Capa 1"><path d="M910.5,140.5a372.83,372.83,0,1,1-145.58,29.39A371.71,371.71,0,0,1,910.5,140.5m0-1c-207.11,0-375,167.89-375,375s167.89,375,375,375,375-167.89,375-375-167.89-375-375-375Z" transform="translate(-530.13 -139.5)"/><path d="M910.5,140.5a372.83,372.83,0,1,1-145.58,29.39A371.71,371.71,0,0,1,910.5,140.5m0-1c-207.11,0-375,167.89-375,375s167.89,375,375,375,375-167.89,375-375-167.89-375-375-375Z" transform="translate(-530.13 -139.5)"/><path d="M910.5,155.5a357.84,357.84,0,1,1-139.74,28.21A356.74,356.74,0,0,1,910.5,155.5m0-1c-198.82,0-360,161.18-360,360s161.18,360,360,360,360-161.18,360-360-161.18-360-360-360Z" transform="translate(-530.13 -139.5)"/><path d="M910.5,170.5a342.84,342.84,0,1,1-133.9,27,342,342,0,0,1,133.9-27m0-1c-190.54,0-345,154.46-345,345s154.46,345,345,345,345-154.46,345-345-154.46-345-345-345Z" transform="translate(-530.13 -139.5)"/><path d="M910.5,185.5a327.95,327.95,0,1,1-128.06,25.85A327,327,0,0,1,910.5,185.5m0-1c-182.25,0-330,147.75-330,330s147.75,330,330,330,330-147.75,330-330-147.75-330-330-330Z" transform="translate(-530.13 -139.5)"/><path d="M910.5,200.5a313.06,313.06,0,1,1-122.22,24.68A311.9,311.9,0,0,1,910.5,200.5m0-1c-174,0-315,141-315,315s141,315,315,315,315-141,315-315-141-315-315-315Z" transform="translate(-530.13 -139.5)"/><path d="M910.5,215.5A298.07,298.07,0,1,1,794.12,239,297.11,297.11,0,0,1,910.5,215.5m0-1c-165.69,0-300,134.31-300,300s134.31,300,300,300,300-134.31,300-300-134.31-300-300-300Z" transform="translate(-530.13 -139.5)"/><path d="M910.5,230.5A283.13,283.13,0,1,1,800,252.82,282.26,282.26,0,0,1,910.5,230.5m0-1c-157.4,0-285,127.6-285,285s127.6,285,285,285,285-127.6,285-285-127.6-285-285-285Z" transform="translate(-530.13 -139.5)"/><path d="M910.5,245.5a268.13,268.13,0,1,1-104.71,21.14A267.28,267.28,0,0,1,910.5,245.5m0-1c-149.12,0-270,120.88-270,270s120.88,270,270,270,270-120.88,270-270-120.88-270-270-270Z" transform="translate(-530.13 -139.5)"/><path d="M910.5,260.5a253.24,253.24,0,1,1-98.87,20,252.52,252.52,0,0,1,98.87-20m0-1c-140.83,0-255,114.17-255,255s114.17,255,255,255,255-114.17,255-255-114.17-255-255-255Z" transform="translate(-530.13 -139.5)"/><path d="M910.5,275.5a238.24,238.24,0,1,1-93,18.78,237.55,237.55,0,0,1,93-18.78m0-1c-132.55,0-240,107.45-240,240s107.45,240,240,240,240-107.45,240-240-107.45-240-240-240Z" transform="translate(-530.13 -139.5)"/><path d="M910.5,290.5a223.25,223.25,0,1,1-87.19,17.6,222.58,222.58,0,0,1,87.19-17.6m0-1c-124.26,0-225,100.74-225,225s100.74,225,225,225,225-100.74,225-225-100.74-225-225-225Z" transform="translate(-530.13 -139.5)"/><path d="M910.5,305.5a208.35,208.35,0,1,1-81.35,16.42A207.78,207.78,0,0,1,910.5,305.5m0-1c-116,0-210,94-210,210s94,210,210,210,210-94,210-210-94-210-210-210Z" transform="translate(-530.13 -139.5)"/><path d="M910.5,320.5A193.47,193.47,0,1,1,835,335.75,192.68,192.68,0,0,1,910.5,320.5m0-1c-107.7,0-195,87.3-195,195s87.3,195,195,195,195-87.3,195-195-87.3-195-195-195Z" transform="translate(-530.13 -139.5)"/><path d="M910.5,335.5a178.48,178.48,0,1,1-69.67,14.07A177.7,177.7,0,0,1,910.5,335.5m0-1a180,180,0,1,0,180,180,180,180,0,0,0-180-180Z" transform="translate(-530.13 -139.5)"/><path d="M910.5,350.5a164,164,0,1,1-116,48,163,163,0,0,1,116-48m0-1a165,165,0,1,0,165,165,165,165,0,0,0-165-165Z" transform="translate(-530.13 -139.5)"/><path d="M910.5,365.5a149,149,0,1,1-105.36,43.64A148,148,0,0,1,910.5,365.5m0-1a150,150,0,1,0,150,150,150,150,0,0,0-150-150Z" transform="translate(-530.13 -139.5)"/><path d="M910.5,380.5a134,134,0,1,1-94.75,39.25A133.12,133.12,0,0,1,910.5,380.5m0-1a135,135,0,1,0,135,135,135,135,0,0,0-135-135Z" transform="translate(-530.13 -139.5)"/><path d="M910.5,395.5a119,119,0,1,1-84.15,34.85A118.25,118.25,0,0,1,910.5,395.5m0-1a120,120,0,1,0,120,120,120,120,0,0,0-120-120Z" transform="translate(-530.13 -139.5)"/><path d="M910.5,410.5a104,104,0,1,1-104,104,104.11,104.11,0,0,1,104-104m0-1a105,105,0,1,0,105,105,105,105,0,0,0-105-105Z" transform="translate(-530.13 -139.5)"/><path d="M910.5,425.5a89,89,0,1,1-89,89,89.11,89.11,0,0,1,89-89m0-1a90,90,0,1,0,90,90,90,90,0,0,0-90-90Z" transform="translate(-530.13 -139.5)"/><path d="M910.5,440.5a74,74,0,1,1-74,74,74.09,74.09,0,0,1,74-74m0-1a75,75,0,1,0,75,75,75,75,0,0,0-75-75Z" transform="translate(-530.13 -139.5)"/><path d="M910.5,455.5a59,59,0,1,1-59,59,59.07,59.07,0,0,1,59-59m0-1a60,60,0,1,0,60,60,60,60,0,0,0-60-60Z" transform="translate(-530.13 -139.5)"/><path d="M910.5,470.5a44,44,0,1,1-44,44,44.05,44.05,0,0,1,44-44m0-1a45,45,0,1,0,45,45,45,45,0,0,0-45-45Z" transform="translate(-530.13 -139.5)"/><path d="M910.5,485.5a29,29,0,1,1-29,29,29,29,0,0,1,29-29m0-1a30,30,0,1,0,30,30,30,30,0,0,0-30-30Z" transform="translate(-530.13 -139.5)"/><path d="M0,0" transform="translate(-530.13 -139.5)"/><rect class="cls-3" x="379.87" y="126" width="1" height="248.5" rx="0.5"/></g><g id="base"><polygon class="cls-4" points="380.37 375 755.37 820.21 5.37 820.21 380.37 375"/></g></svg>